<svg xmlns="http://www.w3.org/2000/svg" width="23.105" height="13.809" viewBox="0 0 23.105 13.809"><defs><style>.a{fill:#002655;}</style></defs><path class="a" d="M194.829,197.188a2.359,2.359,0,1,0,2.359-2.359A2.362,2.362,0,0,0,194.829,197.188Z" transform="translate(-185.636 -190.284)"/><path class="a" d="M22.9,105.056a13.1,13.1,0,0,0-11.342-6.55h-.011a13.1,13.1,0,0,0-11.342,6.55L0,105.41l.205.354a13.1,13.1,0,0,0,11.342,6.55h.011a13.1,13.1,0,0,0,11.342-6.55l.205-.354Zm-5.859.354a5.5,5.5,0,0,1-5.484,5.489h-.01a5.489,5.489,0,0,1,0-10.978h.01A5.5,5.5,0,0,1,17.042,105.41Zm-15.4,0a11.719,11.719,0,0,1,4.331-4.065,6.889,6.889,0,0,0,0,8.13A11.719,11.719,0,0,1,1.644,105.41Zm15.486,4.065a6.889,6.889,0,0,0,0-8.13,11.719,11.719,0,0,1,4.331,4.065A11.72,11.72,0,0,1,17.13,109.475Z" transform="translate(0 -98.506)"/></svg>